<?xml version="1.0"?>
<svg xmlns="http://www.w3.org/2000/svg" xmlns:xlink="http://www.w3.org/1999/xlink" version="1.1" id="Capa_1" x="0px" y="0px" width="512px" height="512px" viewBox="0 0 438.98 438.98" style="enable-background:new 0 0 438.98 438.98;" xml:space="preserve"><g><g>
	<g>
		<path d="M271.603,129.767c3.799-0.566,6.61-3.785,6.768-7.793c0.238-5.941,0.238-11.934,0-17.742    c-0.196-4.417-2.601-7.057-6.437-7.057c-0.396,0-0.789,0.013-1.656,0.09c-6.218,0.645-12.485,1.289-17.953,3.471    c-20.501,8.096-33.485,23.668-37.612,45.078c-2.943,15.442-0.158,30.7,8.068,44.208c12.062,19.712,31.119,31.449,56.643,34.84    c11.854,1.537,26.102-1.17,34.906-3.088c15.506-3.47,29.319-11.015,41.054-22.368c17.849-17.284,27.521-39.584,29.61-68.208    c1.038-14.324-0.645-28.925-4.98-43.342c-4.704-15.614-12.223-29.465-22.265-41.147c-23.312-27.217-55.38-42.845-95.316-46.456    c-57.058-2.635-94.879,15.979-105.696,21.434c-31.408,15.796-56.957,39.229-75.987,69.611    c-12.696,20.319-21.106,42.266-24.944,65.185c-1.971,11.934-2.129,24.102-2.116,36.537c0.04,14.43,0.724,25.336,2.274,35.378    c1.813,11.802,5.072,23.694,8.253,35.193l-4.101,2.417l4.429-1.219c4.403,15.897,11.433,31.577,21.487,47.928    c20.528,33.406,46.805,60.585,82.302,80.743c15.916,9.059,29.214,15.508,41.87,20.357c16.179,6.138,32.737,10.697,51.162,15.61    c11.814,3.091,23.774,5.391,35.524,6.822c8.83,1.078,17.568,1.538,26.809,2.036l1.748,0.118    c4.126,0.213,17.334,0.896,24.812,0.396c8.426-0.514,17.139-1.012,25.812-1.973c0.382-0.023,0.763-0.078,1.104-0.143v-36.037    c-6.467,0.604-14.902,0.814-16.111,0.854c-23.077,0-45.444-3.521-66.576-10.437c-26.416-8.66-50.624-21.646-71.939-38.583    c-22.762-18.071-41.057-39.163-54.356-62.674c-15.652-27.718-24.262-55.987-26.35-86.477c-1.38-20.173-0.145-38.731,3.772-56.707    c3.639-16.73,10.12-32.029,19.252-45.472c15.994-23.578,38.519-38.389,66.932-44c16.874-3.364,33.564-2.207,48.89,3.234    c15.296,5.388,26.547,14.113,34.379,26.601c8.358,13.285,12.145,28.281,11.565,45.785c-0.475,14.89-5.244,27.677-14.232,38.021    c-10.961,12.681-27.441,17.216-42.594,11.55c-11.302-4.192-17.9-13.403-18.596-25.928    C250.55,144.708,256.596,131.934,271.603,129.767z" data-original="#000000" class="active-path" data-old_color="#000000" fill="#FFFFFF"/>
	</g>
</g></g> </svg>
